<svg width="42" height="42" viewBox="0 0 42 42" fill="none" xmlns="http://www.w3.org/2000/svg">
<path d="M17.6667 13.7778V9.33333C17.6667 5.68058 17.6667 3.8542 16.6578 2.62492C16.4731 2.39988 16.2668 2.19353 16.0417 2.00884C14.8125 1 12.9861 1 9.33333 1C5.68058 1 3.8542 1 2.62492 2.00884C2.39988 2.19353 2.19353 2.39988 2.00884 2.62492C1 3.8542 1 5.68058 1 9.33333V13.7778C1 17.4305 1 19.2569 2.00884 20.4862C2.19353 20.7112 2.39988 20.9176 2.62492 21.1023C3.8542 22.1111 5.68058 22.1111 9.33333 22.1111C12.9861 22.1111 14.8125 22.1111 16.0417 21.1023C16.2668 20.9176 16.4731 20.7112 16.6578 20.4862C17.6667 19.2569 17.6667 17.4305 17.6667 13.7778Z" stroke="white" stroke-width="2" stroke-linejoin="round"/>
<path d="M11.5556 28.7776H7.11111C5.56049 28.7776 4.78517 28.7776 4.15429 28.969C2.73384 29.3999 1.62227 30.5114 1.19138 31.9319C1 32.5628 1 33.3381 1 34.8887C1 36.4393 1 37.2146 1.19138 37.8455C1.62227 39.266 2.73384 40.3775 4.15429 40.8084C4.78517 40.9998 5.56049 40.9998 7.11111 40.9998H11.5556C13.1062 40.9998 13.8815 40.9998 14.5124 40.8084C15.9328 40.3775 17.0444 39.266 17.4753 37.8455C17.6667 37.2146 17.6667 36.4393 17.6667 34.8887C17.6667 33.3381 17.6667 32.5628 17.4753 31.9319C17.0444 30.5114 15.9328 29.3999 14.5124 28.969C13.8815 28.7776 13.1062 28.7776 11.5556 28.7776Z" stroke="white" stroke-width="2" stroke-linejoin="round"/>
<path d="M41.0002 32.6667V28.2222C41.0002 24.5695 41.0002 22.7431 39.9913 21.5138C39.8066 21.2888 39.6003 21.0824 39.3752 20.8978C38.146 19.8889 36.3196 19.8889 32.6668 19.8889C29.0141 19.8889 27.1877 19.8889 25.9584 20.8978C25.7334 21.0824 25.527 21.2888 25.3423 21.5138C24.3335 22.7431 24.3335 24.5695 24.3335 28.2222V32.6667C24.3335 36.3195 24.3335 38.1458 25.3423 39.3751C25.527 39.6001 25.7334 39.8065 25.9584 39.9912C27.1877 41 29.0141 41 32.6668 41C36.3196 41 38.146 41 39.3752 39.9912C39.6003 39.8065 39.8066 39.6001 39.9913 39.3751C41.0002 38.1458 41.0002 36.3195 41.0002 32.6667Z" stroke="white" stroke-width="2" stroke-linejoin="round"/>
<path d="M34.8891 1H30.4446C28.894 1 28.1187 1 27.4878 1.19138C26.0673 1.62227 24.9558 2.73384 24.5249 4.15429C24.3335 4.78517 24.3335 5.56049 24.3335 7.11111C24.3335 8.66174 24.3335 9.43705 24.5249 10.0679C24.9558 11.4884 26.0673 12.6 27.4878 13.0308C28.1187 13.2222 28.894 13.2222 30.4446 13.2222H34.8891C36.4397 13.2222 37.215 13.2222 37.8459 13.0308C39.2663 12.6 40.3779 11.4884 40.8088 10.0679C41.0002 9.43705 41.0002 8.66174 41.0002 7.11111C41.0002 5.56049 41.0002 4.78517 40.8088 4.15429C40.3779 2.73384 39.2663 1.62227 37.8459 1.19138C37.215 1 36.4397 1 34.8891 1Z" stroke="white" stroke-width="2" stroke-linejoin="round"/>
</svg>
