<svg width="44" height="42" viewBox="0 0 44 42" fill="none" xmlns="http://www.w3.org/2000/svg">
<path d="M39.9399 31.7692C41.0795 28.4725 42.0256 23.9381 42.0256 20.7802C42.0256 9.85591 32.8417 1 21.5128 1C10.1839 1 1 9.85591 1 20.7802C1 23.9381 1.94614 28.4725 3.08574 31.7692" stroke="white" stroke-width="2" stroke-linecap="round" stroke-linejoin="round"/>
<path d="M14.2854 37.9327L10.7204 26.9621C10.3406 25.9377 9.1268 25.4244 8.12829 25.6808C5.02978 26.7875 3.35141 30.3887 4.37954 33.7242L5.27803 36.6391C6.30616 39.9746 9.65145 41.7813 12.75 40.6746C13.6955 40.2431 14.5479 38.9995 14.2854 37.9327Z" stroke="white" stroke-width="2" stroke-linecap="round" stroke-linejoin="round"/>
<path d="M28.7406 37.9327L32.3056 26.9621C32.6854 25.9377 33.8991 25.4244 34.8977 25.6808C37.9962 26.7875 39.6745 30.3887 38.6464 33.7242L37.7479 36.6391C36.7198 39.9746 33.3745 41.7813 30.276 40.6746C29.3304 40.2431 28.4781 38.9995 28.7406 37.9327Z" stroke="white" stroke-width="2" stroke-linecap="round" stroke-linejoin="round"/>
</svg>
