<svg width="37" height="42" viewBox="0 0 37 42" fill="none" xmlns="http://www.w3.org/2000/svg">
<path d="M24.0303 1.00024L25.1175 3.03256C25.8526 4.40654 26.2201 5.09354 25.977 5.38776C25.734 5.68198 24.9337 5.44436 23.3329 4.96912C21.7326 4.49399 20.0334 4.23834 18.2727 4.23834C8.73326 4.23834 1 11.7429 1 21.0002C1 24.0533 1.84113 26.9157 3.31078 29.3812M12.5152 41.0002L11.4279 38.9679C10.6929 37.5939 10.3254 36.9069 10.5684 36.6127C10.8114 36.3185 11.6118 36.5561 13.2125 37.0314C14.8129 37.5065 16.512 37.7621 18.2727 37.7621C27.8122 37.7621 35.5455 30.2576 35.5455 21.0002C35.5455 17.9472 34.7043 15.0847 33.2347 12.6193" stroke="white" stroke-width="2" stroke-linecap="round" stroke-linejoin="round"/>
</svg>
