<svg width="47" height="42" viewBox="0 0 47 42" fill="none" xmlns="http://www.w3.org/2000/svg">
<path d="M42.3939 1.00008L44.6378 3.43941C45.6402 4.5292 46.1415 5.0741 45.9651 5.53708C45.7886 6.00007 45.0798 6.00007 43.6621 6.00007C40.489 6.00007 36.6927 5.4874 33.7778 7.18332C31.9756 8.23186 30.7207 10.063 28.5979 13.5001M1 36H4.95204C9.77181 36 12.1817 36 14.2155 34.8167C16.0177 33.7682 17.2726 31.9371 19.3954 28.5" stroke="white" stroke-width="2" stroke-linecap="round" stroke-linejoin="round"/>
<path d="M42.3939 40.9999L44.6378 38.5606C45.6402 37.4708 46.1415 36.9259 45.9651 36.4629C45.7886 35.9999 45.0798 35.9999 43.6621 35.9999C40.489 35.9999 36.6927 36.5126 33.7778 34.8167C31.744 33.6334 30.4073 31.4536 27.7337 27.094L20.2595 14.906C17.586 10.5463 16.2492 8.3665 14.2155 7.18325C12.1817 6 9.77181 6 4.95204 6H1" stroke="white" stroke-width="2" stroke-linecap="round" stroke-linejoin="round"/>
</svg>
